<svg width="20" height="20" viewBox="0 0 20 20" fill="none" xmlns="http://www.w3.org/2000/svg">
<path d="M17 0H4.26998C3.56817 0.000233904 2.88865 0.246509 2.34966 0.695976C1.81066 1.14544 1.4463 1.76965 1.31998 2.46L0.0499768 9.46C-0.0291548 9.89244 -0.0122784 10.337 0.0994115 10.7622C0.211101 11.1874 0.414875 11.5828 0.696313 11.9206C0.977751 12.2583 1.32997 12.53 1.72806 12.7166C2.12614 12.9031 2.56036 12.9999 2.99998 13H7.55998L6.99998 14.43C6.76704 15.0561 6.68947 15.7294 6.77391 16.3921C6.85835 17.0548 7.10229 17.6871 7.48479 18.2348C7.86729 18.7825 8.37695 19.2292 8.97004 19.5367C9.56312 19.8441 10.2219 20.0031 10.89 20C11.0823 19.9996 11.2705 19.9437 11.4319 19.8391C11.5933 19.7344 11.7211 19.5854 11.8 19.41L14.65 13H17C17.7956 13 18.5587 12.6839 19.1213 12.1213C19.6839 11.5587 20 10.7956 20 10V3C20 2.20435 19.6839 1.44129 19.1213 0.87868C18.5587 0.316071 17.7956 0 17 0ZM13 11.79L10.28 17.91C10.0017 17.8258 9.74355 17.6855 9.52152 17.4978C9.29949 17.31 9.11825 17.0788 8.98896 16.8183C8.85967 16.5579 8.78508 16.2737 8.76978 15.9834C8.75448 15.693 8.79878 15.4026 8.89998 15.13L9.42998 13.7C9.54291 13.3977 9.58104 13.0727 9.5411 12.7525C9.50117 12.4323 9.38436 12.1265 9.20064 11.8613C9.01693 11.596 8.77176 11.3791 8.48607 11.2292C8.20038 11.0792 7.88264 11.0006 7.55998 11H2.99998C2.85307 11.0002 2.70791 10.9681 2.57482 10.9059C2.44174 10.8437 2.324 10.7529 2.22998 10.64C2.13364 10.5287 2.06308 10.3975 2.02332 10.2557C1.98356 10.114 1.97559 9.96518 1.99998 9.82L3.26998 2.82C3.31257 2.58704 3.43646 2.37676 3.61959 2.2266C3.80271 2.07644 4.03319 1.99614 4.26998 2H13V11.79ZM18 10C18 10.2652 17.8946 10.5196 17.7071 10.7071C17.5195 10.8946 17.2652 11 17 11H15V2H17C17.2652 2 17.5195 2.10536 17.7071 2.29289C17.8946 2.48043 18 2.73478 18 3V10Z" fill="#EF5944"/>
</svg>
