<svg width="21" height="11" viewBox="0 0 21 11" fill="none" xmlns="http://www.w3.org/2000/svg">
<path d="M3.5 1.5H2C1.44772 1.5 1 1.94772 1 2.5V6C1 6.55228 1.44772 7 2 7H3.5M3.5 1.5H17.75C18.7165 1.5 19.5 2.2835 19.5 3.25V3.25C19.5 4.2165 18.7165 5 17.75 5H9.25C9.11193 5 9 5.11193 9 5.25V5.25C9 5.38807 9.11193 5.5 9.25 5.5H11.6917C12.6904 5.5 13.5 6.30959 13.5 7.30827V7.30827C13.5 8.26026 12.7619 9.04921 11.812 9.11253L6.90553 9.43963C6.33008 9.47799 5.76608 9.26608 5.35827 8.85827L4.5 8L3.5 7M3.5 1.5V7" stroke="#3A475B" stroke-width="2" stroke-linecap="round"/>
</svg>
