<svg width="24" height="24" viewBox="0 0 24 24" fill="none" xmlns="http://www.w3.org/2000/svg">
<path d="M21.7099 2.29C21.617 2.19627 21.5064 2.12188 21.3845 2.07111C21.2627 2.02034 21.132 1.9942 20.9999 1.9942C20.8679 1.9942 20.7372 2.02034 20.6154 2.07111C20.4935 2.12188 20.3829 2.19627 20.2899 2.29L18.1699 4.41L17.4599 3.71C17.2726 3.52375 17.0191 3.41921 16.7549 3.41921C16.4908 3.41921 16.2373 3.52375 16.0499 3.71L14.6399 5.12L13.9299 4.41C13.837 4.31627 13.7264 4.24188 13.6045 4.19111C13.4827 4.14034 13.352 4.1142 13.2199 4.1142C13.0879 4.1142 12.9572 4.14034 12.8354 4.19111C12.7135 4.24188 12.6029 4.31627 12.5099 4.41L4.73994 12.19L3.99994 11.49C3.80585 11.3544 3.56991 11.292 3.33414 11.314C3.09837 11.336 2.87806 11.441 2.71243 11.6102C2.5468 11.7794 2.4466 12.002 2.42966 12.2381C2.41273 12.4743 2.48015 12.7089 2.61994 12.9L6.14994 16.44L4.41994 18.18L3.70994 17.46C3.52164 17.2717 3.26624 17.1659 2.99994 17.1659C2.73364 17.1659 2.47824 17.2717 2.28994 17.46C2.10164 17.6483 1.99585 17.9037 1.99585 18.17C1.99585 18.4363 2.10164 18.6917 2.28994 18.88L5.11994 21.71C5.21338 21.8027 5.3242 21.876 5.44603 21.9258C5.56787 21.9755 5.69833 22.0008 5.82994 22C5.96155 22.0008 6.09201 21.9755 6.21385 21.9258C6.33569 21.876 6.4465 21.8027 6.53994 21.71C6.63367 21.617 6.70806 21.5064 6.75883 21.3846C6.8096 21.2627 6.83574 21.132 6.83574 21C6.83574 20.868 6.8096 20.7373 6.75883 20.6154C6.70806 20.4936 6.63367 20.383 6.53994 20.29L5.82994 19.59L7.56994 17.85L11.0999 21.38C11.1926 21.4745 11.303 21.5497 11.4249 21.6012C11.5468 21.6527 11.6776 21.6795 11.8099 21.68C12.0077 21.6792 12.2008 21.6197 12.3648 21.5092C12.5288 21.3986 12.6563 21.2419 12.7312 21.0589C12.8061 20.8758 12.8251 20.6747 12.7857 20.4809C12.7463 20.2871 12.6504 20.1093 12.5099 19.97L11.8099 19.26L19.5899 11.49C19.6837 11.397 19.7581 11.2864 19.8088 11.1646C19.8596 11.0427 19.8857 10.912 19.8857 10.78C19.8857 10.648 19.8596 10.5173 19.8088 10.3954C19.7581 10.2736 19.6837 10.163 19.5899 10.07L18.8799 9.36L20.2899 8C20.4762 7.81264 20.5807 7.55919 20.5807 7.295C20.5807 7.03081 20.4762 6.77736 20.2899 6.59L19.5899 5.88L21.7099 3.76C21.8114 3.66636 21.8925 3.55271 21.9479 3.42621C22.0033 3.29971 22.0319 3.1631 22.0319 3.025C22.0319 2.8869 22.0033 2.75029 21.9479 2.62379C21.8925 2.49729 21.8114 2.38364 21.7099 2.29ZM7.56994 15L6.14994 13.61L7.55994 12.19L8.99994 13.61L7.56994 15ZM10.3899 17.83L8.99994 16.44L10.3899 15L11.8099 16.42L10.3899 17.83ZM13.2199 15L8.99994 10.78L13.2399 6.54L13.9499 7.24L17.4799 10.78L13.2199 15ZM17.4599 8L16.0499 6.54L16.7599 5.83L17.4599 6.53L18.1599 7.23L17.4599 8Z" fill="#A855F7"/>
</svg>
