<svg width="32" height="44" viewBox="0 0 32 44" fill="none" xmlns="http://www.w3.org/2000/svg">
<path d="M16 28C18.1217 28 20.1566 27.1571 21.6569 25.6569C23.1571 24.1566 24 22.1217 24 20V8C24 5.87827 23.1571 3.84344 21.6569 2.34315C20.1566 0.842855 18.1217 0 16 0C13.8783 0 11.8434 0.842855 10.3431 2.34315C8.84285 3.84344 8 5.87827 8 8V20C8 22.1217 8.84285 24.1566 10.3431 25.6569C11.8434 27.1571 13.8783 28 16 28ZM12 8C12 6.93913 12.4214 5.92172 13.1716 5.17157C13.9217 4.42143 14.9391 4 16 4C17.0609 4 18.0783 4.42143 18.8284 5.17157C19.5786 5.92172 20 6.93913 20 8V20C20 21.0609 19.5786 22.0783 18.8284 22.8284C18.0783 23.5786 17.0609 24 16 24C14.9391 24 13.9217 23.5786 13.1716 22.8284C12.4214 22.0783 12 21.0609 12 20V8ZM32 20C32 19.4696 31.7893 18.9609 31.4142 18.5858C31.0391 18.2107 30.5304 18 30 18C29.4696 18 28.9609 18.2107 28.5858 18.5858C28.2107 18.9609 28 19.4696 28 20C28 23.1826 26.7357 26.2348 24.4853 28.4853C22.2348 30.7357 19.1826 32 16 32C12.8174 32 9.76516 30.7357 7.51472 28.4853C5.26428 26.2348 4 23.1826 4 20C4 19.4696 3.78929 18.9609 3.41421 18.5858C3.03914 18.2107 2.53043 18 2 18C1.46957 18 0.96086 18.2107 0.585787 18.5858C0.210714 18.9609 0 19.4696 0 20C0.00353159 23.8946 1.42744 27.6542 4.0048 30.5739C6.58215 33.4937 10.136 35.3732 14 35.86V40H10C9.46957 40 8.96086 40.2107 8.58579 40.5858C8.21071 40.9609 8 41.4696 8 42C8 42.5304 8.21071 43.0391 8.58579 43.4142C8.96086 43.7893 9.46957 44 10 44H22C22.5304 44 23.0391 43.7893 23.4142 43.4142C23.7893 43.0391 24 42.5304 24 42C24 41.4696 23.7893 40.9609 23.4142 40.5858C23.0391 40.2107 22.5304 40 22 40H18V35.86C21.864 35.3732 25.4179 33.4937 27.9952 30.5739C30.5726 27.6542 31.9965 23.8946 32 20Z" fill="white"/>
</svg>
